<?xml version="1.0" encoding="utf-8"?>
<!-- Generator: Adobe Illustrator 17.1.0, SVG Export Plug-In . SVG Version: 6.00 Build 0)  -->
<!DOCTYPE svg PUBLIC "-//W3C//DTD SVG 1.1//EN" "http://www.w3.org/Graphics/SVG/1.1/DTD/svg11.dtd">
<svg version="1.1" id="Layer_1" xmlns="http://www.w3.org/2000/svg" xmlns:xlink="http://www.w3.org/1999/xlink" x="0px" y="0px"
	 viewBox="0 0 468 468" enable-background="new 0 0 468 468" xml:space="preserve">
<path fill="#0089D0" d="M374.768,423.241V375.41c0.499,0.101,1.009,0.16,1.525,0.16c2.331,0,4.537-1.015,6.051-2.784
	c3.224-3.771,4.856-7.864,4.856-12.169c0-0.532-0.025-1.062-0.073-1.584c-1.529-22.784-35.424-37.2-37.428-38.033v-17.762
	c0.771,0.24,1.556,0.365,2.358,0.365c3.272,0,6.173-1.964,7.39-5.001c0.902-2.257,1.361-4.587,1.361-6.933
	c0-0.23-0.028-0.455-0.037-0.684l0.037,0.027c-0.022-0.259-0.053-0.513-0.073-0.771c-0.025-0.325-0.055-0.647-0.094-0.97
	c-2.565-24.459-18.905-40.088-18.905-40.088l-0.002,0.002c-0.743-0.767-1.623-1.42-2.645-1.902
	c-5.727-30.094-20.711-52.307-38.794-68.094c-8.288-7.233-17.434-13.031-27.07-17.282c0.999-2.726,0.178-5.894-2.265-7.714
	c-1.976-1.473-4.355-2.786-7.053-3.931c-0.101-0.947-0.393-1.868-0.92-2.692c-1.597-2.507-4.327-4.728-7.856-6.512v-24.085
	c0.269,0.031,0.536,0.055,0.807,0.055c2.439,0,4.726-1.303,5.971-3.398c1.066-1.799,1.606-3.728,1.606-5.73
	c0-6.745-5.651-11.248-13.302-13.74c-2.142-5.438-6.946-10.073-6.946-10.073V69.319c0-4.617-3.38-8.434-7.797-9.14V27.92
	c2.084-0.634,3.611-2.548,3.611-4.84c0-2.806-2.274-5.08-5.081-5.08c-2.806,0-5.081,2.274-5.081,5.08
	c0,2.292,1.527,4.207,3.612,4.84v32.26c-4.418,0.705-7.798,4.522-7.798,9.14v14.769c0,0-4.805,4.635-6.944,10.073
	c-7.652,2.492-13.304,6.995-13.304,13.74c0,2.003,0.541,3.932,1.608,5.73c1.244,2.096,3.531,3.398,5.969,3.398
	c0.27,0,0.54-0.023,0.807-0.055v24.085c-3.528,1.784-6.259,4.005-7.855,6.512c-0.527,0.824-0.819,1.745-0.919,2.692
	c-2.698,1.145-5.079,2.458-7.054,3.931c-2.443,1.82-3.265,4.988-2.264,7.714c-9.637,4.251-18.784,10.049-27.07,17.282
	c-18.084,15.787-33.068,38-38.794,68.094c-1.02,0.482-1.903,1.136-2.646,1.902l-0.002-0.002c0,0-16.339,15.629-18.903,40.088
	c-0.041,0.322-0.069,0.645-0.093,0.97c-0.023,0.258-0.054,0.512-0.075,0.771l0.036-0.027c-0.008,0.229-0.036,0.453-0.036,0.684
	c0,2.346,0.457,4.676,1.36,6.933c1.217,3.037,4.119,5.001,7.391,5.001c0.8,0,1.588-0.125,2.358-0.365V321
	c-2.005,0.833-35.899,15.249-37.427,38.033c-0.051,0.521-0.076,1.052-0.076,1.584c0,4.305,1.635,8.398,4.858,12.169
	c1.515,1.77,3.72,2.784,6.05,2.784c0.517,0,1.026-0.06,1.528-0.16v47.831c-7.925,4.223-11.846,9.091-11.846,14.666
	c0,2.525,0.884,6.336,5.101,10.148C87.877,449.31,89.73,450,91.709,450c1.586,0,3.096-0.444,4.369-1.287
	c1.748-1.157,2.835-2.957,2.984-4.934c0.102-1.359-0.259-2.692-0.995-3.838l0.02,0.016c0,0-1.719-2.548,0.668-4.25
	c4.332-2.699,14.651-6.835,36.218-10.652c26.708-4.729,61.974-7.333,99.027-7.333c37.054,0,72.32,2.603,99.028,7.333
	c21.565,3.817,31.884,7.953,36.218,10.652c2.387,1.702,0.667,4.25,0.667,4.25l0.018-0.016c-0.733,1.146-1.096,2.478-0.992,3.838
	c0.148,1.977,1.233,3.776,2.982,4.934c1.274,0.843,2.784,1.287,4.37,1.287c1.977,0,3.831-0.69,5.218-1.944
	c4.215-3.812,5.1-7.623,5.1-10.148C386.61,432.332,382.689,427.464,374.768,423.241z M311.098,215.859
	c0.213-0.436,0.565-0.75,0.992-0.888l0.182-0.059l0.307-0.018c1.726,0,2.84,2.684,3.141,3.506l2.321,6.348
	c0.226,0.618,0.921,2.738,0.291,4.028c-0.213,0.437-0.567,0.753-0.995,0.891l-0.185,0.059l-0.307,0.019
	c-1.724,0-2.832-2.684-3.13-3.507l-2.318-6.344C311.169,219.274,310.472,217.142,311.098,215.859z M298.73,210.857
	c0.304-0.477,0.763-0.777,1.293-0.849l0.237-0.016c1.6,0,2.823,2.03,3.385,3.77l1.844,5.77c0.253,0.78,0.758,2.737-0.025,3.982
	c-0.301,0.48-0.759,0.786-1.291,0.859l-0.238,0.015c-1.508,0-2.789-1.895-3.391-3.772l-1.848-5.775
	C298.445,214.05,297.95,212.085,298.73,210.857z M286.315,207.6c0.391-0.526,0.955-0.824,1.591-0.843c0,0,0,0,0.001,0
	c1.7,0,3.085,1.883,3.599,3.743l1.494,5.386c0.405,1.466,0.284,2.787-0.335,3.623c-0.395,0.531-0.964,0.833-1.605,0.85h-0.048
	c-1.647,0-3.029-1.881-3.544-3.739l-1.496-5.391C285.573,209.749,285.698,208.429,286.315,207.6z M272.387,204.662
	c0.49-0.581,1.159-0.913,1.881-0.932c0.001,0,0.001,0,0.001,0c1.722,0,3.22,1.646,3.529,3.825l0.757,5.259
	c0.179,1.309-0.109,2.518-0.795,3.322c-0.489,0.575-1.154,0.901-1.875,0.92l-0.058,0.001c-1.666,0-3.156-1.646-3.467-3.827
	l-0.745-5.247C271.423,206.686,271.705,205.475,272.387,204.662z M246.02,108.819c0-0.389,0.184-0.755,0.495-0.984
	c0.298-0.219,0.672-0.288,1.025-0.204c0.401,0.008,0.892,0.121,1.461,0.337l0.17,0.054c0.066,0.024,0.13,0.054,0.19,0.088
	c0.653,0.29,0.957,0.66,1.191,0.988c0.026,0.038,0.05,0.079,0.087,0.115c0.228,0.23,0.354,0.54,0.354,0.862v7.535
	c0,0.419-0.215,0.81-0.568,1.034c-0.111,0.069-0.23,0.12-0.353,0.151c-0.028,0.038-0.06,0.086-0.097,0.148v20.179
	c0,0.396-0.189,0.767-0.511,0.995c-0.211,0.152-0.461,0.23-0.714,0.23c-0.132,0-0.265-0.021-0.395-0.066
	c-0.219-0.074-0.33-0.089-0.53-0.112c-0.245-0.028-0.507-0.062-0.904-0.17c-0.534-0.145-0.902-0.629-0.902-1.182V108.819z
	 M243.957,107.434c0.056,0.146,0.088,0.301,0.088,0.458v3.412c0,0.536-0.35,1.008-0.857,1.168v24.944c0,0.363-0.16,0.708-0.439,0.94
	c-0.22,0.186-0.5,0.284-0.785,0.284c-0.072,0-0.145-0.006-0.216-0.02c-1.097-0.197-1.248-0.2-1.751-0.212
	c-0.309-0.007-0.729-0.016-1.479-0.062c-0.645-0.042-1.145-0.577-1.145-1.224l0.01-30.126c0-0.587,0.439-1.097,1.017-1.205
	c0,0,1.304-0.297,3.643,0.342l0.151,0.018c0.152,0.029,0.292,0.085,0.415,0.162C243.145,106.513,243.712,106.827,243.957,107.434z
	 M233.852,106.822l-0.077,30.098c-0.002,0.675-0.549,1.221-1.225,1.221l-1.191-0.004c-0.365,0-0.448,0.012-0.905,0.063l-0.834,0.092
	c-0.044,0.005-0.088,0.009-0.131,0.009c-0.3,0-0.593-0.112-0.818-0.314c-0.258-0.232-0.406-0.564-0.406-0.911v-29.951
	c0-0.625,0.47-1.148,1.09-1.217c0.668-0.075,0.974-0.134,1.202-0.178c0.483-0.094,0.754-0.135,2.071-0.135
	c0.324,0,0.638,0.13,0.866,0.359C233.724,106.185,233.852,106.497,233.852,106.822z M217.778,110.133
	c0-1.753,1.661-2.643,2.644-2.895c0.339-0.089,1.061-0.228,1.717-0.354c0.35-0.067,0.68-0.131,0.912-0.179
	c0.361-0.075,0.738,0.015,1.022,0.247c0.286,0.233,0.454,0.582,0.454,0.949l0.023,30.042c0,0.59-0.419,1.097-0.998,1.205
	c-1.28,0.241-1.848,0.409-2.98,0.744c-0.114,0.034-0.23,0.051-0.347,0.051c-0.262,0-0.519-0.084-0.732-0.243
	c-0.31-0.231-0.492-0.595-0.492-0.981l-0.009-25.182c-0.032-0.142-0.114-0.183-0.178-0.195c-0.574-0.114-1.036-0.625-1.036-1.21
	V110.133z M200.157,158.121c6.71-4.999,19.529-8.105,33.456-8.105c13.929,0,26.75,3.107,33.457,8.107
	c0.814,0.607,0.98,1.757,0.374,2.571c-0.358,0.482-0.912,0.738-1.472,0.738c-0.382,0-0.768-0.118-1.098-0.364
	c-6.106-4.552-18.084-7.38-31.262-7.38c-13.175,0-25.153,2.827-31.259,7.378c-0.812,0.606-1.964,0.439-2.57-0.375
	C199.176,159.879,199.344,158.727,200.157,158.121z M263.615,205.768v4.986c0,2.146-1.747,3.895-3.895,3.895
	c-2.146,0-3.89-1.749-3.89-3.895v-4.986c0-2.145,1.744-3.889,3.89-3.889C261.868,201.879,263.615,203.623,263.615,205.768z
	 M246.179,204.538v4.995c0,2.144-1.748,3.887-3.896,3.887c-2.144,0-3.886-1.743-3.886-3.887v-4.995c0-2.145,1.742-3.889,3.886-3.889
	C244.431,200.649,246.179,202.394,246.179,204.538z M229.016,204.538v4.995c0,2.144-1.745,3.887-3.89,3.887
	c-2.14,0-3.881-1.743-3.881-3.887v-4.995c0-2.145,1.741-3.889,3.881-3.889C227.27,200.649,229.016,202.394,229.016,204.538z
	 M212.752,205.768v4.986c0,2.146-1.751,3.895-3.902,3.895c-2.14,0-3.88-1.749-3.88-3.895v-4.986c0-2.145,1.74-3.889,3.88-3.889
	C211.001,201.879,212.752,203.623,212.752,205.768z M188.857,212.819l0.762-5.266c0.31-2.18,1.805-3.823,3.476-3.823
	c0.763,0.018,1.427,0.348,1.917,0.923c0.686,0.807,0.975,2.019,0.795,3.324l-0.762,5.257c-0.301,2.175-1.789,3.823-3.461,3.823
	h-0.053c-0.726-0.02-1.394-0.347-1.884-0.924C188.963,215.328,188.675,214.119,188.857,212.819z M174.416,216.1l1.496-5.521
	c0.503-1.895,1.882-3.822,3.545-3.822c0.681,0.02,1.247,0.318,1.638,0.846c0.626,0.843,0.75,2.19,0.341,3.694l-1.499,5.521
	c-0.492,1.836-1.811,3.816-3.544,3.816h-0.046c-0.633-0.015-1.197-0.311-1.587-0.835C174.132,218.957,174.006,217.608,174.416,216.1
	z M161.915,219.734l1.845-5.895c0.546-1.771,1.763-3.847,3.393-3.847l0.232,0.015c0.53,0.071,0.985,0.37,1.287,0.841
	c0.793,1.238,0.3,3.253,0.052,4.062l-1.866,5.914c-0.575,1.907-1.848,3.845-3.388,3.845l-0.223-0.013
	c-0.551-0.078-1.006-0.385-1.306-0.863C161.152,222.534,161.66,220.535,161.915,219.734z M149.324,225.061l2.623-6.558
	c0.571-1.638,1.564-3.65,2.94-3.65l0.358,0.045c0.415,0.113,0.742,0.383,0.942,0.763c0.558,1.061,0.007,3.038-0.371,4.122
	l-2.621,6.558c-0.569,1.635-1.56,3.648-2.938,3.648l-0.387-0.052c-0.365-0.091-0.699-0.354-0.906-0.732
	C148.395,228.155,148.945,226.158,149.324,225.061z M117.27,298.485c-0.372,0.147-0.757,0.22-1.136,0.22
	c-1.215,0-2.364-0.729-2.844-1.925c-0.669-1.673-1.009-3.392-1.009-5.11c0-10.785,12.783-20.175,36.967-27.154
	c22.68-6.544,52.779-10.148,84.753-10.148c31.975,0,62.074,3.605,84.754,10.149c24.184,6.979,36.966,16.369,36.966,27.155
	c0,1.718-0.339,3.435-1.007,5.108c-0.479,1.198-1.629,1.926-2.845,1.926c-0.377,0-0.763-0.069-1.137-0.22
	c-1.568-0.628-2.332-2.41-1.704-3.98c0.379-0.945,0.57-1.899,0.57-2.834c0-14.747-47.475-31.182-115.598-31.182
	c-68.124,0-115.598,16.434-115.598,31.18c0,0.936,0.193,1.89,0.571,2.835C119.602,296.073,118.839,297.856,117.27,298.485z
	 M345.515,298.479v18.63c0,0.601-0.294,1.165-0.787,1.508c-0.312,0.218-0.68,0.33-1.05,0.33c-0.215,0-0.43-0.037-0.635-0.114
	c-0.435-0.16-0.878-0.314-1.323-0.469l-0.159-0.057c-0.737-0.258-1.231-0.953-1.231-1.734v-19.365c0-3.127,0.19-5.936,2.48-5.936
	c0.364,0,0.833,0.147,1.134,0.35C344.492,291.998,345.599,292.756,345.515,298.479z M336.059,292.778v21.177
	c0,0.581-0.273,1.128-0.742,1.476c-0.321,0.235-0.704,0.36-1.094,0.36c-0.179,0-0.357-0.025-0.534-0.078
	c-0.923-0.279-1.854-0.55-2.801-0.822l-0.473-0.136c-0.784-0.228-1.325-0.947-1.325-1.765l-0.007-21.443
	c-0.093-1.44-0.061-3.973,1.13-5.249c0.792-0.85,2.009-1.073,3.133-0.545C335.795,286.902,336.059,291.049,336.059,292.778z
	 M324.179,287.97v22.756c0,0.564-0.261,1.097-0.703,1.446c-0.327,0.255-0.728,0.391-1.135,0.391c-0.145,0-0.293-0.018-0.438-0.053
	c-1.653-0.404-3.337-0.795-5.036-1.179c-0.838-0.189-1.433-0.934-1.433-1.791v-23.232c0.002-2.628,0.999-5.696,3.794-5.696
	c0.377,0,0.765,0.064,1.154,0.191C324.152,282.044,324.186,287.366,324.179,287.97z M308.723,283.509v23.919
	c0,0.545-0.242,1.064-0.662,1.412c-0.333,0.276-0.749,0.425-1.175,0.425c-0.112,0-0.225-0.011-0.335-0.03
	c-2.147-0.4-4.309-0.78-6.513-1.14c-0.889-0.143-1.542-0.912-1.542-1.812v-24.213c0-0.132,0.012-1.318,0.424-2.548
	c0.805-2.412,2.73-3.608,5.074-3.108C307.715,277.207,308.719,281.246,308.723,283.509z M290.005,279.889v24.609
	c0,0.529-0.227,1.032-0.623,1.381c-0.339,0.297-0.77,0.457-1.214,0.457c-0.079,0-0.157-0.005-0.237-0.016
	c-2.152-0.279-4.331-0.542-6.522-0.79c-0.93-0.105-1.63-0.891-1.63-1.826v-24.79c0.003-2.873,1.465-5.965,4.669-5.965
	c0.224,0,0.458,0.018,0.704,0.051C289.023,273.539,290.019,277.741,290.005,279.889z M270.204,277.423v25.015
	c0,0.514-0.216,1.005-0.594,1.353c-0.341,0.312-0.783,0.483-1.243,0.483c-0.051,0-0.102-0.002-0.153-0.005
	c-2.249-0.189-4.74-0.365-7.838-0.555c-0.969-0.061-1.726-0.862-1.726-1.835v-25.086c0-0.151,0.021-1.512,0.671-2.904
	c0.959-2.055,2.785-3.187,5.143-3.187C269.011,270.72,270.204,275.106,270.204,277.423z M248.997,276.122v25.149
	c0,0.496-0.201,0.972-0.558,1.318c-0.343,0.331-0.803,0.518-1.278,0.518c-0.02,0-0.038,0-0.059-0.001
	c-2.716-0.085-5.433-0.142-8.143-0.173c-1.007-0.013-1.815-0.832-1.815-1.837v-25.166c0-2.54,1.568-6.321,5.892-6.321
	C247.42,269.622,248.997,273.511,248.997,276.122z M227.511,275.974v25.163c0,1.001-0.801,1.817-1.802,1.838
	c-2.959,0.058-6.044,0.148-9.169,0.27c-0.024,0-0.048,0-0.071,0c-0.475,0-0.931-0.183-1.274-0.513
	c-0.359-0.347-0.564-0.823-0.564-1.323v-25.135c-0.007-0.232-0.025-2.778,1.774-4.676c0.784-0.828,2.221-1.828,4.614-1.889
	l0.225-0.003C225.841,269.707,227.511,273.454,227.511,275.974z M205.971,277.097v24.987c0,0.966-0.75,1.767-1.714,1.833
	c-2.618,0.175-5.213,0.38-7.793,0.603c-0.052,0.004-0.105,0.007-0.158,0.007c-0.457,0-0.901-0.171-1.241-0.482
	c-0.379-0.349-0.596-0.841-0.596-1.354v-24.964c0-2.124,1.158-6.267,5.538-6.753c2.262-0.247,3.622,0.579,4.368,1.315
	C206.07,273.961,206.011,276.496,205.971,277.097z M179.405,273.461c0.307-0.045,0.589-0.064,0.855-0.064
	c2.029,0,3.638,1.17,4.413,3.211c0.491,1.291,0.505,2.539,0.505,2.679v24.738c0,0.931-0.696,1.715-1.62,1.824
	c-2.625,0.311-5.002,0.619-7.268,0.94c-0.087,0.013-0.172,0.018-0.259,0.018c-0.439,0-0.867-0.157-1.205-0.449
	c-0.401-0.349-0.631-0.854-0.631-1.387v-24.554C174.085,278.364,175.029,274.129,179.405,273.461z M167.147,282.488v24.14
	c0,0.897-0.647,1.662-1.533,1.811c-2.091,0.353-4.168,0.732-6.213,1.123c-0.114,0.021-0.23,0.032-0.344,0.032
	c-0.424,0-0.839-0.148-1.17-0.423c-0.423-0.348-0.666-0.867-0.666-1.414V283.93c0.019-2.25,1.001-6.256,4.563-7.076
	c0.354-0.084,0.711-0.125,1.054-0.125C165.797,276.728,167.147,279.714,167.147,282.488z M146.335,281.115
	c0.319-0.104,0.643-0.156,0.961-0.156c2.609,0,3.539,3.031,3.539,5.868v23.035c0,0.855-0.589,1.598-1.422,1.79
	c-1.411,0.326-2.796,0.653-4.168,0.991c-0.144,0.034-0.291,0.052-0.437,0.052c-0.408,0-0.807-0.135-1.134-0.392
	c-0.444-0.348-0.704-0.881-0.704-1.445V288.14C142.958,287.171,143.059,282.168,146.335,281.115z M133.909,285.824
	c0.31-0.148,0.638-0.225,0.973-0.225c2.509,0,2.801,3.402,2.802,5.963v21.686c0,0.814-0.535,1.529-1.314,1.762l-2.417,0.723
	c-0.172,0.053-0.348,0.077-0.524,0.077c-0.39,0-0.777-0.125-1.099-0.364c-0.464-0.347-0.738-0.894-0.738-1.473V292.76
	C131.56,290.127,131.935,286.765,133.909,285.824z M127.825,296.48l-0.089,19.017c0,1.849-1.305,2.399-1.305,2.399l-1.838,0.703
	c0,0-1.777,0.635-1.777-1.766v-19.039c-0.018-2.531,0.261-5.883,2.011-6.869C127.426,289.462,127.825,296.48,127.825,296.48z
	 M105.09,417.685c0,0.708-0.406,1.352-1.043,1.656c-0.802,0.383-1.587,0.772-2.356,1.17c-0.265,0.139-0.556,0.206-0.846,0.206
	c-0.331,0-0.662-0.089-0.953-0.267c-0.548-0.334-0.884-0.929-0.884-1.569v-31.113c0-0.673,0.37-1.294,0.962-1.615
	c0.594-0.321,1.315-0.291,1.879,0.078c0.8,0.522,1.6,1.003,2.362,1.465c0.55,0.333,0.887,0.928,0.887,1.571L105.09,417.685z
	 M116.078,413.447c0,0.798-0.515,1.505-1.274,1.748c-1.121,0.361-1.596,0.551-2.254,0.812c-0.396,0.159-0.851,0.341-1.522,0.592
	c-0.208,0.077-0.426,0.115-0.642,0.115c-0.37,0-0.736-0.111-1.047-0.327c-0.495-0.344-0.791-0.909-0.791-1.51v-22.093
	c0-0.631,0.326-1.219,0.861-1.557c0.536-0.335,1.206-0.372,1.775-0.097c2.862,1.381,3.547,1.608,3.575,1.615
	c0.831,0.194,1.32,0.91,1.32,1.764V413.447z M130.422,409.65c0,0.87-0.61,1.622-1.463,1.798c-1.022,0.211-2.024,0.428-3.004,0.651
	c-0.134,0.029-0.271,0.045-0.406,0.045c-0.412,0-0.818-0.14-1.146-0.402c-0.437-0.348-0.691-0.877-0.691-1.434v-35.396
	c0.029-0.735,0.387-6.549,4.462-7.489c0.547-0.124,1.12,0.005,1.557,0.354c0.438,0.349,0.693,0.876,0.693,1.437V409.65z
	 M142.637,409.017c-2.097,0.326-4.138,0.66-6.108,1.011c-0.108,0.02-0.215,0.029-0.323,0.029c-0.429,0-0.847-0.149-1.18-0.43
	c-0.417-0.348-0.658-0.863-0.658-1.407l0.009-40.715c0-0.862,0.598-1.607,1.438-1.795c0.791-0.174,1.545-0.263,2.243-0.263
	c4.349,0,6.049,3.422,6.131,5.727l0.001,36.028C144.191,408.106,143.531,408.877,142.637,409.017z M161.64,404.868
	c0,0.94-0.711,1.729-1.646,1.827c-0.469,0.048-0.936,0.103-1.401,0.159c-0.409,0.047-0.816,0.095-1.224,0.139
	c-0.066,0.008-0.133,0.011-0.198,0.011c-0.451,0-0.888-0.166-1.227-0.469c-0.387-0.349-0.61-0.848-0.61-1.367v-41.29
	c0-0.533,0.231-1.04,0.634-1.39c0.402-0.348,0.932-0.502,1.463-0.431c0.171,0.025,4.21,0.667,4.21,6.411V404.868z M174.484,403.58
	c0,0.947-0.722,1.74-1.667,1.829l-1.089,0.101c-0.57,0.052-1.138,0.103-1.702,0.157c-0.061,0.009-0.121,0.01-0.182,0.01
	c-0.454,0-0.894-0.167-1.233-0.475c-0.385-0.349-0.604-0.844-0.604-1.362v-36.63c0-0.045,0.001-0.091,0.004-0.135
	c0.08-1.092,0.67-6.562,4.451-6.939c0.518-0.054,1.031,0.117,1.417,0.466c0.384,0.349,0.604,0.843,0.604,1.361V403.58z
	 M199.936,401.879c0,0.979-0.768,1.786-1.746,1.834c-2.043,0.103-4.072,0.214-6.079,0.326l-1.096,0.061
	c-0.033,0.001-0.067,0.003-0.1,0.003c-0.47,0-0.921-0.18-1.264-0.503c-0.366-0.346-0.574-0.829-0.574-1.334v-36.995
	c0.155-2.587,2.235-7.27,9.021-7.27c1.014,0,1.837,0.824,1.837,1.837V401.879z M225.898,401.127c0,1.005-0.808,1.822-1.812,1.836
	c-3.287,0.044-6.525,0.105-9.702,0.179c-0.015,0-0.029,0-0.043,0c-0.479,0-0.94-0.186-1.284-0.521
	c-0.354-0.346-0.553-0.819-0.553-1.315v-37.253c0-2.781,1.784-6.917,6.699-6.917c4.902,0,6.689,3.99,6.695,6.674V401.127z
	 M248.94,401.186c0,0.492-0.198,0.965-0.551,1.31c-0.343,0.339-0.805,0.527-1.287,0.527c-0.011,0-0.021,0-0.033,0
	c-3.171-0.061-6.386-0.095-9.654-0.111c-1.011-0.004-1.828-0.826-1.828-1.837V363.75c0-2.707,1.778-6.736,6.674-6.736
	c4.901,0,6.68,4.104,6.68,6.864V401.186z M271.706,401.894c0,0.503-0.206,0.984-0.57,1.331c-0.343,0.326-0.797,0.507-1.266,0.507
	c-0.031,0-0.06-0.001-0.09-0.003c-3.225-0.155-6.514-0.279-9.85-0.392c-0.991-0.031-1.776-0.844-1.776-1.835v-37.199
	c0-2.629,1.807-6.542,6.784-6.542c4.966,0,6.768,4.22,6.768,7.055V401.894z M292.858,404.647c-0.341,0.312-0.783,0.481-1.24,0.481
	c-0.054,0-0.109-0.002-0.162-0.007c-1.319-0.117-2.647-0.218-3.986-0.318l-1.156-0.087c-0.958-0.074-1.697-0.871-1.697-1.832
	v-41.779c0-0.486,0.194-0.954,0.539-1.299c0.344-0.344,0.811-0.538,1.298-0.538c1.99,0,3.69,0.656,4.914,1.897
	c2.067,2.096,2.085,5.069,2.081,5.403l0.007,36.723C293.455,403.809,293.239,404.299,292.858,404.647z M305.759,404.431
	c0,0.518-0.218,1.014-0.602,1.36c-0.34,0.309-0.781,0.477-1.234,0.477c-0.061,0-0.12-0.002-0.179-0.008l-0.337-0.033
	c-0.647-0.064-1.306-0.127-1.954-0.201c-0.927-0.107-1.627-0.891-1.627-1.825v-36.542c0.053-1.574,0.495-6.5,3.929-6.5
	c0.135,0,0.27,0.01,0.409,0.027c0.914,0.121,1.595,0.901,1.595,1.821V404.431z M325.407,409.038c-0.01,0-0.015,0-0.024,0
	c-0.091,0-0.185-0.007-0.278-0.021c-1.834-0.28-3.714-0.557-5.632-0.831c-0.905-0.13-1.577-0.905-1.577-1.82l0.013-36.118
	c0.064-2.412,1.718-5.933,6.012-5.933c0.567,0,1.173,0.062,1.8,0.184c0.861,0.169,1.483,0.924,1.483,1.802l0.019,40.601
	c0.013,0.098,0.023,0.197,0.023,0.301C327.245,408.217,326.422,409.038,325.407,409.038z M345.182,410.565
	c0,0.559-0.254,1.086-0.69,1.435c-0.328,0.262-0.732,0.4-1.145,0.4c-0.137,0-0.273-0.015-0.408-0.045
	c-1.667-0.38-3.385-0.74-5.173-1.093c-0.86-0.171-1.479-0.928-1.479-1.804V373.92c0.066-2.335,1.561-5.727,5.406-5.727
	c0.673,0,1.398,0.107,2.158,0.32c0.795,0.22,1.342,0.943,1.342,1.769L345.182,410.565z M353.67,412.649
	c0,0.571-0.265,1.11-0.718,1.457c-0.324,0.25-0.719,0.381-1.119,0.381c-0.158,0-0.318-0.021-0.475-0.062l-0.39-0.106
	c-0.358-0.095-0.719-0.193-1.087-0.286c-0.816-0.206-1.388-0.938-1.388-1.78v-39.986c0-0.58,0.275-1.126,0.739-1.472
	c0.464-0.347,1.066-0.455,1.62-0.289c2.328,0.691,2.816,4.282,2.816,7.173V412.649z M366.347,420.468c-0.005,0-0.014,0-0.022,0
	c-0.29,0-0.58-0.068-0.847-0.207c-1.194-0.619-2.429-1.204-3.67-1.74c-0.669-0.288-1.104-0.943-1.108-1.673l-0.153-21.435
	c-0.004-0.698,0.387-1.338,1.009-1.652c0.013-0.007,1.566-0.804,3.651-2.396c0.556-0.424,1.302-0.498,1.929-0.186
	c0.626,0.311,1.022,0.947,1.022,1.646l0.003,25.504c0.015,0.098,0.024,0.199,0.024,0.303
	C368.185,419.644,367.362,420.468,366.347,420.468z M373.816,365.621c1.469-1.718,2.213-3.4,2.213-5.004
	c0-14.968-58.329-31.645-142.028-31.645c-83.7,0-142.029,16.677-142.029,31.645c0,1.604,0.745,3.287,2.212,5.004
	c1.099,1.283,0.949,3.216-0.337,4.314c-0.576,0.495-1.284,0.736-1.989,0.736c-0.864,0-1.721-0.363-2.327-1.071
	c-2.443-2.856-3.682-5.879-3.682-8.983c0-24.53,76.331-37.768,148.151-37.768c71.82,0,148.15,13.237,148.15,37.768
	c0,3.104-1.239,6.126-3.685,8.983c-0.604,0.708-1.463,1.071-2.326,1.071c-0.704,0-1.413-0.241-1.989-0.736
	C372.865,368.837,372.717,366.904,373.816,365.621z"/>
</svg>
